<svg xmlns="http://www.w3.org/2000/svg" height="24px" viewBox="0 -960 960 960" width="24px" fill="#434343"><path d="M212.31-140Q182-140 161-161q-21-21-21-51.31v-535.38Q140-778 161-799q21-21 51.31-21h535.38Q778-820 799-799q21 21 21 51.31v535.38Q820-182 799-161q-21 21-51.31 21H212.31Zm0-60h535.38q4.62 0 8.46-3.85 3.85-3.84 3.85-8.46v-535.38q0-4.62-3.85-8.46-3.84-3.85-8.46-3.85H212.31q-4.62 0-8.46 3.85-3.85 3.84-3.85 8.46v535.38q0 4.62 3.85 8.46 3.84 3.85 8.46 3.85Zm238.46-165.77h47.69v-227.69h-47.69v227.69Zm-159.23 0h67.69q18.54 0 31.19-12.65 12.66-12.66 12.66-31.2v-66.92h-47.69v54.62q0 3.46-2.5 5.96t-5.97 2.5h-43.07q-3.47 0-5.97-2.5-2.5-2.5-2.5-5.96v-115.39q0-3.46 2.5-5.96t5.97-2.5h99.23v-13.85q0-14.3-9.77-24.07t-24.08-9.77h-77.69q-18.54 0-31.19 12.65-12.66 12.66-12.66 31.2v139.99q0 18.54 12.66 31.2 12.65 12.65 31.19 12.65Zm266.92 0h47.69v-83.08h78.46v-47.69h-78.46v-49.23h118.46v-47.69H558.46v227.69ZM200-200v-560 560Z"/></svg>